<?xml version="1.0" encoding="utf-8"?>
<!-- Generator: Adobe Illustrator 19.1.0, SVG Export Plug-In . SVG Version: 6.00 Build 0)  -->
<svg version="1.1" id="Шаблон" xmlns="http://www.w3.org/2000/svg" xmlns:xlink="http://www.w3.org/1999/xlink" x="0px"
	 y="0px" viewBox="0 0 273.6 335.5" style="enable-background:new 0 0 273.6 335.5;" xml:space="preserve">
<style type="text/css">
	.st0{stroke:#000000;stroke-width:7;stroke-miterlimit:10;}
</style>
<path class="st0" d="M35.8,180.2c-9.3,0-18.7-2.8-28.1-10.5c-0.6-0.5-0.7-1.5-0.2-2.1c0.5-0.6,1.5-0.7,2.1-0.2
	c20.7,17,41.1,8.6,62.7-0.2c21.5-8.8,43.7-17.9,65.8,0.2c0.6,0.5,0.7,1.5,0.2,2.1c-0.5,0.6-1.5,0.7-2.1,0.2
	c-20.7-17-41.1-8.6-62.7,0.2C61.1,175,48.5,180.2,35.8,180.2z M73.5,23.2c21.6-8.9,42-17.3,62.7-0.2c0.6,0.5,1.6,0.4,2.1-0.2
	c0.5-0.6,0.4-1.6-0.2-2.1c-22.1-18.2-44.3-9-65.8-0.2c-21.6,8.9-42,17.3-62.7,0.2C9,20.1,8,20.2,7.5,20.9C7,21.5,7,22.5,7.7,23
	c9.4,7.7,18.7,10.5,28.1,10.5C48.5,33.5,61.1,28.3,73.5,23.2z M73.5,169.9c21.6-8.9,42-17.3,62.7-0.2c0.6,0.5,1.6,0.4,2.1-0.2
	c0.5-0.6,0.4-1.6-0.2-2.1c-22.1-18.2-44.3-9-65.8-0.2c-21.6,8.9-42,17.3-62.7,0.2c-0.6-0.5-1.6-0.4-2.1,0.2
	c-0.5,0.6-0.4,1.6,0.2,2.1c9.4,7.7,18.7,10.5,28.1,10.5C48.5,180.2,61.1,175,73.5,169.9z M73.5,316.6c21.6-8.9,42-17.3,62.7-0.2
	c0.6,0.5,1.6,0.4,2.1-0.2c0.5-0.6,0.4-1.6-0.2-2.1c-22.1-18.2-44.3-9-65.8-0.2c-21.6,8.9-42,17.3-62.7,0.2c-0.6-0.5-1.6-0.4-2.1,0.2
	c-0.5,0.6-0.4,1.6,0.2,2.1c9.4,7.7,18.7,10.5,28.1,10.5C48.5,326.8,61.1,321.6,73.5,316.6z M202,23.2c21.6-8.9,42-17.3,62.7-0.2
	c0.6,0.5,1.6,0.4,2.1-0.2c0.5-0.6,0.4-1.6-0.2-2.1c-22.1-18.2-44.3-9-65.8-0.2c-21.6,8.9-42,17.3-62.7,0.2c-0.6-0.5-1.6-0.4-2.1,0.2
	c-0.5,0.6-0.4,1.6,0.2,2.1c9.4,7.7,18.7,10.5,28.1,10.5C177,33.5,189.6,28.3,202,23.2z M137.1,168.5 M202,316.6
	c21.6-8.9,42-17.3,62.7-0.2c0.6,0.5,1.6,0.4,2.1-0.2c0.5-0.6,0.4-1.6-0.2-2.1c-22.1-18.2-44.3-9-65.8-0.2
	c-21.6,8.9-42,17.3-62.7,0.2c-0.6-0.5-1.6-0.4-2.1,0.2c-0.5,0.6-0.4,1.6,0.2,2.1c9.4,7.7,18.7,10.5,28.1,10.5
	C177,326.8,189.6,321.6,202,316.6z M202,169.1c21.6-9.3,42-18,62.7-1c0.6,0.5,1.6,0.4,2.1-0.2c0.5-0.6,0.4-1.6-0.2-2.1
	c-22.1-18.2-44.3-8.6-65.8,0.6c-21.6,9.3-42,18-62.7,1c-0.6-0.5-1.6-0.4-2.1,0.2c-0.5,0.6-0.4,1.6,0.2,2.1
	c9.2,7.5,18.4,10.3,27.5,10.3C176.6,180,189.4,174.5,202,169.1z M9.8,316.2l257-293.3c0.5-0.6,0.5-1.6-0.1-2.1
	c-0.6-0.5-1.6-0.5-2.1,0.1L7.5,314.2c-0.5,0.6-0.5,1.6,0.1,2.1c0.3,0.3,0.6,0.4,1,0.4C9.1,316.7,9.5,316.5,9.8,316.2z"/>
</svg>
